<?xml version="1.0" standalone="no"?>
<!DOCTYPE svg PUBLIC "-//W3C//DTD SVG 20010904//EN"
 "http://www.w3.org/TR/2001/REC-SVG-20010904/DTD/svg10.dtd">
<svg version="1.0" xmlns="http://www.w3.org/2000/svg"
 width="116.000000pt" height="116.000000pt" viewBox="0 0 116.000000 116.000000"
 preserveAspectRatio="xMidYMid meet">
<metadata>
Created by potrace 1.11, written by Peter Selinger 2001-2013
</metadata>
<g transform="translate(0.000000,116.000000) scale(0.100000,-0.100000)"
fill="#000000" stroke="none">
<path d="M152 1129 c-57 -9 -106 -19 -109 -22 -2 -3 -2 -15 2 -26 4 -13 14
-19 33 -19 45 1 70 -11 80 -40 5 -15 10 -202 10 -425 0 -218 4 -403 9 -409 4
-7 8 -17 8 -23 2 -19 19 -50 34 -63 13 -11 13 -12 1 -7 -8 4 2 -9 22 -29 20
-20 41 -36 46 -36 6 0 12 -6 14 -12 6 -17 365 -23 384 -7 7 6 18 8 24 4 5 -3
10 -1 10 4 0 6 3 10 8 10 4 -1 10 0 15 1 4 1 10 3 15 4 19 6 68 32 74 41 4 5
8 6 8 1 0 -5 7 -3 15 4 21 18 32 5 30 -35 -1 -26 3 -36 16 -40 31 -10 130 -2
143 11 10 9 12 141 12 566 l-1 553 -60 -1 c-33 0 -72 -4 -87 -7 l-28 -7 0
-478 0 -478 -52 -23 c-64 -29 -58 -27 -138 -44 -102 -22 -195 -10 -242 31 -10
8 -18 12 -18 8 0 -4 -11 6 -25 22 -55 65 -56 81 -55 538 0 232 -2 429 -6 438
-8 20 -44 20 -192 -5z"/>
</g>
</svg>
